<?xml version="1.0" encoding="UTF-8"?>
<svg xmlns="http://www.w3.org/2000/svg" xmlns:xlink="http://www.w3.org/1999/xlink" width="35pt" height="35pt" viewBox="0 0 35 35" version="1.1">
<g id="surface1">
<path style=" stroke:none;fill-rule:nonzero;fill:rgb(0%,0%,0%);fill-opacity:1;" d="M 17.496094 0.363281 C 7.835938 0.363281 0 8.230469 0 17.933594 C 0 25.695312 5.015625 32.28125 11.96875 34.605469 C 12.84375 34.765625 13.164062 34.222656 13.164062 33.757812 C 13.164062 33.339844 13.148438 32.234375 13.140625 30.769531 C 8.273438 31.832031 7.246094 28.414062 7.246094 28.414062 C 6.449219 26.382812 5.300781 25.84375 5.300781 25.84375 C 3.710938 24.753906 5.421875 24.777344 5.421875 24.777344 C 7.175781 24.902344 8.101562 26.589844 8.101562 26.589844 C 9.664062 29.273438 12.199219 28.496094 13.195312 28.046875 C 13.351562 26.910156 13.804688 26.136719 14.304688 25.699219 C 10.421875 25.253906 6.335938 23.746094 6.335938 17.015625 C 6.335938 15.097656 7.015625 13.527344 8.136719 12.300781 C 7.957031 11.855469 7.355469 10.066406 8.308594 7.652344 C 8.308594 7.652344 9.777344 7.179688 13.121094 9.449219 C 14.515625 9.0625 16.011719 8.867188 17.503906 8.859375 C 18.988281 8.871094 20.484375 9.0625 21.882812 9.453125 C 25.222656 7.179688 26.691406 7.652344 26.691406 7.652344 C 27.644531 10.074219 27.046875 11.855469 26.867188 12.300781 C 27.988281 13.53125 28.664062 15.097656 28.664062 17.019531 C 28.664062 23.765625 24.574219 25.25 20.675781 25.6875 C 21.304688 26.230469 21.863281 27.300781 21.863281 28.941406 C 21.863281 31.289062 21.84375 33.183594 21.84375 33.757812 C 21.84375 34.230469 22.15625 34.777344 23.046875 34.601562 C 29.992188 32.277344 35 25.691406 35 17.933594 C 35 8.230469 27.164062 0.363281 17.496094 0.363281 Z M 17.496094 0.363281 "/>
</g>
</svg>
